<svg id="cart" xmlns="http://www.w3.org/2000/svg" width="25.067" height="25.067" viewBox="0 0 25.067 25.067">
  <path id="Path_3" data-name="Path 3" d="M0,0H25.067V25.067H0Z" fill="none"/>
  <path id="Path_4" data-name="Path 4" d="M4.144,6.621.757,3.235,2.235,1.757,5.621,5.144H21.54a1.044,1.044,0,0,1,1,1.344l-2.507,8.356a1.044,1.044,0,0,1-1,.745H6.233v2.089H17.722v2.089H5.189a1.044,1.044,0,0,1-1.044-1.044ZM5.711,23.944a1.567,1.567,0,1,1,1.567-1.567A1.567,1.567,0,0,1,5.711,23.944Zm12.533,0a1.567,1.567,0,1,1,1.567-1.567A1.567,1.567,0,0,1,18.244,23.944Z" transform="translate(0.034 0.078)"/>
</svg>
