<svg xmlns="http://www.w3.org/2000/svg" width="35.013" height="15.603" viewBox="0 0 35.013 15.603">
  <path id="food" d="M1233.385,714.815a1.653,1.653,0,0,0,1.651,1.652h6.766v2.845h-6.766a1.654,1.654,0,0,0,0,3.308h6.766v2.842h-6.766a1.652,1.652,0,0,0,0,3.3h9.564v-.01c2.242-.1,3.661-1.8,4.8-3.623a4.834,4.834,0,0,1,4.34-2.217h12.438a2.116,2.116,0,1,0,0-4.227h-12.7a4.629,4.629,0,0,1-4.047-1.793c-1.222-1.814-2.554-3.626-4.834-3.723v-.011h-9.564a1.651,1.651,0,0,0-1.651,1.652" transform="translate(-1233.385 -713.163)"/>
</svg>
