<svg xmlns="http://www.w3.org/2000/svg" width="24.61" height="27.968" viewBox="0 0 24.61 27.968">
  <path id="read" d="M955.579,533.909a1.481,1.481,0,0,0-.238-.109l-10.7-4.9,10.7-4.9a1.451,1.451,0,1,0-1.214-2.623,1.422,1.422,0,0,0-.214.152l-9.594,6.818,1.108-11.718a1.428,1.428,0,0,0,.025-.261,1.452,1.452,0,0,0-2.9,0,1.428,1.428,0,0,0,.025.261l1.107,11.718-9.594-6.818a1.357,1.357,0,0,0-.213-.152,1.452,1.452,0,1,0-1.452,2.514,1.468,1.468,0,0,0,.238.109l10.7,4.9-10.7,4.9a1.506,1.506,0,0,0-.238.109,1.452,1.452,0,0,0,1.452,2.515,1.368,1.368,0,0,0,.213-.152l9.594-6.817-1.107,11.717a1.427,1.427,0,0,0-.025.261,1.452,1.452,0,0,0,2.9,0,1.427,1.427,0,0,0-.025-.261l-1.108-11.717,9.594,6.817a1.434,1.434,0,0,0,.214.152,1.452,1.452,0,1,0,1.452-2.515" transform="translate(-931.696 -514.916)"/>
</svg>
