<svg xmlns="http://www.w3.org/2000/svg" width="25.691" height="25.71" viewBox="0 0 25.691 25.71">
  <path id="shop" d="M1217.5,439.478l-7.038-2.346a.806.806,0,0,1-.544-.776v-.012a.806.806,0,0,1,.544-.776l7.038-2.346a4.979,4.979,0,1,0-6.234-6.319L1208.9,434a.807.807,0,0,1-.777.544h-.011a.808.808,0,0,1-.777-.544l-2.346-7.037a4.979,4.979,0,1,0-6.319,6.235l7.1,2.367a.807.807,0,0,1,.544.776.019.019,0,0,0,0,.012.807.807,0,0,1-.544.776l-7.037,2.346a4.98,4.98,0,1,0,6.235,6.319l2.367-7.1a.808.808,0,0,1,.777-.544h.011a.807.807,0,0,1,.777.544l2.367,7.1a4.979,4.979,0,1,0,6.234-6.319" transform="translate(-1195.266 -423.495)"/>
</svg>
